<svg width="259" height="46" viewBox="0 0 259 46" fill="none" xmlns="http://www.w3.org/2000/svg">
<rect width="259" height="46" rx="8" fill="black"/>
<path d="M41.2393 28H37.2962V16.3636H41.3189C42.4742 16.3636 43.4666 16.5966 44.2962 17.0625C45.1295 17.5246 45.7697 18.1894 46.2166 19.0568C46.6636 19.9242 46.8871 20.9621 46.8871 22.1705C46.8871 23.3826 46.6617 24.4242 46.2109 25.2955C45.764 26.1667 45.1181 26.8352 44.2734 27.3011C43.4325 27.767 42.4212 28 41.2393 28ZM39.4041 26.1761H41.1371C41.9477 26.1761 42.6238 26.0284 43.1655 25.733C43.7071 25.4337 44.1143 24.9886 44.3871 24.3977C44.6598 23.803 44.7962 23.0606 44.7962 22.1705C44.7962 21.2803 44.6598 20.5417 44.3871 19.9545C44.1143 19.3636 43.7109 18.9223 43.1768 18.6307C42.6465 18.3352 41.9875 18.1875 41.1996 18.1875H39.4041V26.1761ZM49.7592 28H47.5092L51.6058 16.3636H54.2081L58.3104 28H56.0604L52.9524 18.75H52.8615L49.7592 28ZM49.8331 23.4375H55.9695V25.1307H49.8331V23.4375ZM59.843 28V16.3636H64.2067C65.1006 16.3636 65.8506 16.5303 66.4567 16.8636C67.0665 17.197 67.5268 17.6553 67.8374 18.2386C68.1518 18.8182 68.3089 19.4773 68.3089 20.2159C68.3089 20.9621 68.1518 21.625 67.8374 22.2045C67.523 22.7841 67.0589 23.2405 66.4453 23.5739C65.8317 23.9034 65.076 24.0682 64.1783 24.0682H61.2862V22.3352H63.8942C64.4169 22.3352 64.8449 22.2443 65.1783 22.0625C65.5116 21.8807 65.7578 21.6307 65.9169 21.3125C66.0798 20.9943 66.1612 20.6288 66.1612 20.2159C66.1612 19.803 66.0798 19.4394 65.9169 19.125C65.7578 18.8106 65.5097 18.5663 65.1726 18.392C64.8393 18.214 64.4093 18.125 63.8828 18.125H61.951V28H59.843ZM70.3374 28H68.0874L72.1839 16.3636H74.7862L78.8885 28H76.6385L73.5305 18.75H73.4396L70.3374 28ZM70.4112 23.4375H76.5476V25.1307H70.4112V23.4375ZM78.5036 18.1307V16.3636H87.7876V18.1307H84.1911V28H82.1001V18.1307H78.5036ZM89.5774 28V16.3636H91.6854V21.7102H91.8274L96.3672 16.3636H98.9411L94.4411 21.5852L98.9808 28H96.4467L92.9751 23.0114L91.6854 24.5341V28H89.5774ZM101.9 28H99.6499L103.746 16.3636H106.349L110.451 28H108.201L105.093 18.75H105.002L101.9 28ZM101.974 23.4375H108.11V25.1307H101.974V23.4375ZM121.546 16.3636V28H119.671L114.188 20.0739H114.092V28H111.984V16.3636H113.87L119.347 24.2955H119.45V16.3636H121.546ZM127.812 28V16.3636H135.266V18.1307H129.92V21.2898H134.755V23.0568H129.92V28H127.812ZM137.187 28V16.3636H141.55C142.444 16.3636 143.194 16.5189 143.8 16.8295C144.41 17.1402 144.871 17.5758 145.181 18.1364C145.496 18.6932 145.653 19.3428 145.653 20.0852C145.653 20.8314 145.494 21.4792 145.175 22.0284C144.861 22.5739 144.397 22.9962 143.783 23.2955C143.17 23.5909 142.416 23.7386 141.522 23.7386H138.414V21.9886H141.238C141.761 21.9886 142.189 21.9167 142.522 21.7727C142.855 21.625 143.102 21.411 143.261 21.1307C143.424 20.8466 143.505 20.4981 143.505 20.0852C143.505 19.6723 143.424 19.3201 143.261 19.0284C143.098 18.733 142.85 18.5095 142.516 18.358C142.183 18.2027 141.753 18.125 141.227 18.125H139.295V28H137.187ZM143.198 22.7273L146.079 28H143.727L140.897 22.7273H143.198ZM147.593 28V16.3636H155.161V18.1307H149.701V21.2898H154.769V23.0568H149.701V26.233H155.207V28H147.593ZM157.312 28V16.3636H164.88V18.1307H159.42V21.2898H164.488V23.0568H159.42V26.233H164.925V28H157.312ZM170.488 18.1307V16.3636H179.772V18.1307H176.175V28H174.085V18.1307H170.488ZM181.562 28V16.3636H185.925C186.819 16.3636 187.569 16.5189 188.175 16.8295C188.785 17.1402 189.246 17.5758 189.556 18.1364C189.871 18.6932 190.028 19.3428 190.028 20.0852C190.028 20.8314 189.869 21.4792 189.55 22.0284C189.236 22.5739 188.772 22.9962 188.158 23.2955C187.545 23.5909 186.791 23.7386 185.897 23.7386H182.789V21.9886H185.613C186.136 21.9886 186.564 21.9167 186.897 21.7727C187.23 21.625 187.477 21.411 187.636 21.1307C187.799 20.8466 187.88 20.4981 187.88 20.0852C187.88 19.6723 187.799 19.3201 187.636 19.0284C187.473 18.733 187.225 18.5095 186.891 18.358C186.558 18.2027 186.128 18.125 185.602 18.125H183.67V28H181.562ZM187.573 22.7273L190.454 28H188.102L185.272 22.7273H187.573ZM194.076 16.3636V28H191.968V16.3636H194.076ZM197.853 28H195.603L199.7 16.3636H202.302L206.404 28H204.154L201.046 18.75H200.955L197.853 28ZM197.927 23.4375H204.063V25.1307H197.927V23.4375ZM207.937 28V16.3636H210.045V26.233H215.17V28H207.937Z" fill="white"/>
</svg>
