<svg width="171" height="55" viewBox="0 0 171 55" fill="none" xmlns="http://www.w3.org/2000/svg">
<g filter="url(#filter0_d_41_118)">
<rect x="4" width="163" height="47" rx="8" fill="black" fill-opacity="0.85" shape-rendering="crispEdges"/>
<path d="M43.1202 29V14.4545H52.4384V16.6634H45.7551V20.6122H51.7992V22.821H45.7551V29H43.1202ZM54.5691 29V18.0909H57.062V19.9091H57.1756C57.3745 19.2794 57.7154 18.794 58.1983 18.4531C58.686 18.1075 59.2424 17.9347 59.8674 17.9347C60.0094 17.9347 60.168 17.9418 60.3432 17.956C60.5231 17.9654 60.6723 17.982 60.7907 18.0057V20.3707C60.6818 20.3329 60.5089 20.2997 60.2722 20.2713C60.0402 20.2382 59.8153 20.2216 59.5975 20.2216C59.1287 20.2216 58.7073 20.3234 58.3333 20.527C57.964 20.7259 57.6728 21.0028 57.4597 21.358C57.2466 21.7131 57.1401 22.1226 57.1401 22.5866V29H54.5691ZM66.8791 29.2131C65.7853 29.2131 64.8407 28.9858 64.0453 28.5312C63.2546 28.072 62.6461 27.4233 62.22 26.5852C61.7939 25.7424 61.5808 24.7505 61.5808 23.6094C61.5808 22.4872 61.7939 21.5024 62.22 20.6548C62.6509 19.8026 63.2522 19.1397 64.024 18.6662C64.7958 18.188 65.7025 17.9489 66.7441 17.9489C67.4165 17.9489 68.051 18.0578 68.6475 18.2756C69.2489 18.4886 69.7792 18.8201 70.2385 19.2699C70.7025 19.7197 71.0671 20.2926 71.3322 20.9886C71.5974 21.6799 71.7299 22.5038 71.7299 23.4602V24.2486H62.7882V22.5156H69.2654C69.2607 22.0232 69.1542 21.5852 68.9458 21.2017C68.7375 20.8134 68.4463 20.508 68.0723 20.2855C67.7029 20.063 67.2721 19.9517 66.7797 19.9517C66.2541 19.9517 65.7924 20.0795 65.3947 20.3352C64.997 20.5862 64.6868 20.9176 64.4643 21.3295C64.2465 21.7367 64.1352 22.1842 64.1305 22.6719V24.1847C64.1305 24.8191 64.2465 25.3636 64.4785 25.8182C64.7105 26.268 65.0349 26.6136 65.4515 26.8551C65.8682 27.0919 66.3559 27.2102 66.9146 27.2102C67.2886 27.2102 67.6272 27.1581 67.9302 27.054C68.2333 26.9451 68.496 26.7865 68.7186 26.5781C68.9411 26.3698 69.1092 26.1117 69.2228 25.804L71.6234 26.0739C71.4719 26.7083 71.1831 27.2623 70.7569 27.7358C70.3355 28.2045 69.7958 28.5691 69.1376 28.8295C68.4795 29.0852 67.7266 29.2131 66.8791 29.2131ZM78.7346 29.2131C77.6408 29.2131 76.6962 28.9858 75.9007 28.5312C75.11 28.072 74.5016 27.4233 74.0755 26.5852C73.6493 25.7424 73.4363 24.7505 73.4363 23.6094C73.4363 22.4872 73.6493 21.5024 74.0755 20.6548C74.5063 19.8026 75.1077 19.1397 75.8794 18.6662C76.6512 18.188 77.5579 17.9489 78.5996 17.9489C79.272 17.9489 79.9064 18.0578 80.503 18.2756C81.1043 18.4886 81.6346 18.8201 82.0939 19.2699C82.5579 19.7197 82.9225 20.2926 83.1877 20.9886C83.4528 21.6799 83.5854 22.5038 83.5854 23.4602V24.2486H74.6436V22.5156H81.1209C81.1162 22.0232 81.0096 21.5852 80.8013 21.2017C80.593 20.8134 80.3018 20.508 79.9277 20.2855C79.5584 20.063 79.1275 19.9517 78.6351 19.9517C78.1096 19.9517 77.6479 20.0795 77.2502 20.3352C76.8525 20.5862 76.5423 20.9176 76.3198 21.3295C76.102 21.7367 75.9907 22.1842 75.986 22.6719V24.1847C75.986 24.8191 76.102 25.3636 76.334 25.8182C76.566 26.268 76.8903 26.6136 77.307 26.8551C77.7237 27.0919 78.2114 27.2102 78.7701 27.2102C79.1441 27.2102 79.4827 27.1581 79.7857 27.054C80.0887 26.9451 80.3515 26.7865 80.574 26.5781C80.7966 26.3698 80.9647 26.1117 81.0783 25.804L83.4789 26.0739C83.3274 26.7083 83.0385 27.2623 82.6124 27.7358C82.191 28.2045 81.6512 28.5691 80.9931 28.8295C80.3349 29.0852 79.5821 29.2131 78.7346 29.2131ZM90.1958 16.6634V14.4545H101.801V16.6634H97.3052V29H94.6916V16.6634H90.1958ZM102.792 29V18.0909H105.285V19.9091H105.398C105.597 19.2794 105.938 18.794 106.421 18.4531C106.909 18.1075 107.465 17.9347 108.09 17.9347C108.232 17.9347 108.391 17.9418 108.566 17.956C108.746 17.9654 108.895 17.982 109.013 18.0057V20.3707C108.904 20.3329 108.732 20.2997 108.495 20.2713C108.263 20.2382 108.038 20.2216 107.82 20.2216C107.351 20.2216 106.93 20.3234 106.556 20.527C106.187 20.7259 105.895 21.0028 105.682 21.358C105.469 21.7131 105.363 22.1226 105.363 22.5866V29H102.792ZM110.721 29V18.0909H113.292V29H110.721ZM112.014 16.5426C111.607 16.5426 111.256 16.4077 110.963 16.1378C110.669 15.8632 110.523 15.5341 110.523 15.1506C110.523 14.7623 110.669 14.4332 110.963 14.1634C111.256 13.8887 111.607 13.7514 112.014 13.7514C112.426 13.7514 112.776 13.8887 113.065 14.1634C113.359 14.4332 113.506 14.7623 113.506 15.1506C113.506 15.5341 113.359 15.8632 113.065 16.1378C112.776 16.4077 112.426 16.5426 112.014 16.5426ZM119.075 29.2202C118.384 29.2202 117.762 29.0971 117.208 28.8509C116.658 28.5999 116.223 28.2306 115.901 27.7429C115.584 27.2552 115.425 26.6539 115.425 25.9389C115.425 25.3234 115.539 24.8144 115.766 24.4119C115.993 24.0095 116.303 23.6875 116.696 23.446C117.089 23.2045 117.532 23.0223 118.024 22.8991C118.521 22.7713 119.035 22.679 119.566 22.6222C120.205 22.5559 120.723 22.4967 121.121 22.4446C121.519 22.3878 121.807 22.3026 121.987 22.1889C122.172 22.0705 122.264 21.8883 122.264 21.642V21.5994C122.264 21.0644 122.106 20.6501 121.789 20.3565C121.471 20.063 121.014 19.9162 120.418 19.9162C119.788 19.9162 119.289 20.0535 118.919 20.3281C118.555 20.6027 118.308 20.9271 118.181 21.3011L115.78 20.9602C115.969 20.2973 116.282 19.7434 116.718 19.2983C117.153 18.8485 117.686 18.5123 118.316 18.2898C118.945 18.0625 119.641 17.9489 120.404 17.9489C120.929 17.9489 121.452 18.0104 121.973 18.1335C122.494 18.2566 122.97 18.4602 123.401 18.7443C123.832 19.0237 124.177 19.4048 124.438 19.8878C124.703 20.3707 124.835 20.9744 124.835 21.6989V29H122.364V27.5014H122.279C122.122 27.8045 121.902 28.0885 121.618 28.3537C121.339 28.6141 120.986 28.8248 120.56 28.9858C120.138 29.142 119.644 29.2202 119.075 29.2202ZM119.743 27.331C120.259 27.331 120.707 27.2292 121.085 27.0256C121.464 26.8172 121.755 26.5426 121.959 26.2017C122.167 25.8608 122.271 25.4891 122.271 25.0866V23.8011C122.191 23.8674 122.054 23.929 121.86 23.9858C121.67 24.0426 121.457 24.0923 121.22 24.1349C120.984 24.1776 120.749 24.2154 120.517 24.2486C120.285 24.2817 120.084 24.3101 119.914 24.3338C119.53 24.3859 119.187 24.4711 118.884 24.5895C118.581 24.7079 118.342 24.8736 118.166 25.0866C117.991 25.295 117.904 25.5649 117.904 25.8963C117.904 26.3698 118.076 26.7273 118.422 26.9688C118.768 27.2102 119.208 27.331 119.743 27.331ZM129.992 14.4545V29H127.421V14.4545H129.992Z" fill="white"/>
</g>
<defs>
<filter id="filter0_d_41_118" x="0" y="0" width="171" height="55" filterUnits="userSpaceOnUse" color-interpolation-filters="sRGB">
<feFlood flood-opacity="0" result="BackgroundImageFix"/>
<feColorMatrix in="SourceAlpha" type="matrix" values="0 0 0 0 0 0 0 0 0 0 0 0 0 0 0 0 0 0 127 0" result="hardAlpha"/>
<feOffset dy="4"/>
<feGaussianBlur stdDeviation="2"/>
<feComposite in2="hardAlpha" operator="out"/>
<feColorMatrix type="matrix" values="0 0 0 0 0 0 0 0 0 0 0 0 0 0 0 0 0 0 0.5 0"/>
<feBlend mode="normal" in2="BackgroundImageFix" result="effect1_dropShadow_41_118"/>
<feBlend mode="normal" in="SourceGraphic" in2="effect1_dropShadow_41_118" result="shape"/>
</filter>
</defs>
</svg>
